<?xml version="1.0" encoding="UTF-8" standalone="no"?>
<!-- Created with Inkscape (http://www.inkscape.org/) -->

<svg
   xmlns:dc="http://purl.org/dc/elements/1.1/"
   xmlns:cc="http://creativecommons.org/ns#"
   xmlns:rdf="http://www.w3.org/1999/02/22-rdf-syntax-ns#"
   xmlns:svg="http://www.w3.org/2000/svg"
   xmlns="http://www.w3.org/2000/svg"
   xmlns:xlink="http://www.w3.org/1999/xlink"
   xmlns:sodipodi="http://sodipodi.sourceforge.net/DTD/sodipodi-0.dtd"
   xmlns:inkscape="http://www.inkscape.org/namespaces/inkscape"
   width="120mm"
   height="320mm"
   viewBox="0 0 425.19685 1133.8583"
   id="svg2"
   version="1.1"
   inkscape:version="0.91 r13725"
   sodipodi:docname="bomb-balloons.svg"
   inkscape:export-filename="C:\y12\plan2014-15\svg\bicycle-balloons\bomb-balloons.png"
   inkscape:export-xdpi="90"
   inkscape:export-ydpi="90">
  <defs
     id="defs4">
    <linearGradient
       id="linearGradient14806">
      <stop
         offset="0"
         style="stop-color:#a0dfff"
         id="stop14808" />
      <stop
         offset="1"
         style="stop-color:#00a6d4;stop-opacity:.98039"
         id="stop14810" />
    </linearGradient>
    <linearGradient
       id="linearGradient14841">
      <stop
         offset="0"
         style="stop-color:#ffd5a0"
         id="stop14843" />
      <stop
         offset="1"
         style="stop-color:#ff9d22;stop-opacity:.98039"
         id="stop14845" />
    </linearGradient>
    <linearGradient
       id="linearGradient6752">
      <stop
         offset="0"
         style="stop-color:#ffa0a0"
         id="stop6754" />
      <stop
         offset="1"
         style="stop-color:#d40000;stop-opacity:.97938"
         id="stop6756" />
    </linearGradient>
    <radialGradient
       inkscape:collect="always"
       r="21.995001"
       gradientTransform="matrix(1.0542315,-0.13959839,0.25800204,1.9484521,5.6490861,-1406.8357)"
       cx="125.7"
       cy="897.65997"
       gradientUnits="userSpaceOnUse"
       xlink:href="#linearGradient6752"
       id="radialGradient6980" />
    <radialGradient
       inkscape:collect="always"
       r="352.85999"
       gradientTransform="matrix(0.18918797,0.25036006,-0.25790787,0.19489592,426.67527,-8.7526853)"
       cx="236.82001"
       cy="540.67999"
       gradientUnits="userSpaceOnUse"
       xlink:href="#linearGradient6752"
       id="radialGradient6982" />
    <radialGradient
       inkscape:collect="always"
       r="21.995001"
       gradientTransform="matrix(1.0542315,-0.13959839,0.25800204,1.9484521,212.01161,-1454.3537)"
       cx="125.7"
       cy="897.65997"
       gradientUnits="userSpaceOnUse"
       xlink:href="#linearGradient14841"
       id="radialGradient6984" />
    <radialGradient
       inkscape:collect="always"
       r="352.85999"
       gradientTransform="matrix(0.18918797,0.25036006,-0.25790787,0.19489592,633.03779,-56.266986)"
       cx="236.82001"
       cy="540.67999"
       gradientUnits="userSpaceOnUse"
       xlink:href="#linearGradient14841"
       id="radialGradient6986" />
    <radialGradient
       inkscape:collect="always"
       r="21.995001"
       gradientTransform="matrix(1.0542315,-0.13959839,0.25800204,1.9484521,97.845446,-1386.3509)"
       cx="125.7"
       cy="897.65997"
       gradientUnits="userSpaceOnUse"
       xlink:href="#linearGradient14806"
       id="radialGradient6988" />
    <radialGradient
       inkscape:collect="always"
       r="352.85999"
       gradientTransform="matrix(0.18918797,0.25036006,-0.25790787,0.19489592,518.87163,11.735145)"
       cx="236.82001"
       cy="540.67999"
       gradientUnits="userSpaceOnUse"
       xlink:href="#linearGradient14806"
       id="radialGradient6990" />
  </defs>
  <sodipodi:namedview
     id="base"
     pagecolor="#ffffff"
     bordercolor="#666666"
     borderopacity="1.0"
     inkscape:pageopacity="0.0"
     inkscape:pageshadow="2"
     inkscape:zoom="0.75318056"
     inkscape:cx="212.59843"
     inkscape:cy="614.98725"
     inkscape:document-units="px"
     inkscape:current-layer="layer1"
     showgrid="false"
     inkscape:window-width="1920"
     inkscape:window-height="1028"
     inkscape:window-x="-8"
     inkscape:window-y="-8"
     inkscape:window-maximized="1"
     fit-margin-top="0"
     fit-margin-left="0"
     fit-margin-right="0"
     fit-margin-bottom="0" />
  <metadata
     id="metadata7">
    <rdf:RDF>
      <cc:Work
         rdf:about="">
        <dc:format>image/svg+xml</dc:format>
        <dc:type
           rdf:resource="http://purl.org/dc/dcmitype/StillImage" />
        <dc:title></dc:title>
      </cc:Work>
    </rdf:RDF>
  </metadata>
  <g
     inkscape:label="Layer 1"
     inkscape:groupmode="layer"
     id="layer1"
     transform="translate(-242.2392,-180.17365)">
    <g
       id="g4239"
       transform="translate(-14.874421,164.73474)">
      <path
         id="path14767"
         style="fill:url(#radialGradient6980)"
         sodipodi:type="star"
         d="m 370.90633,305.28336 c 2.53473,-0.30417 20.1387,23.19095 19.13475,25.53817 -1.00394,2.34722 -30.1533,5.84515 -31.68408,3.8021 -1.53078,-2.04306 10.0146,-29.03611 12.54933,-29.34027 z"
         sodipodi:r1="18.424053"
         inkscape:flatsided="true"
         sodipodi:arg2="-0.64302775"
         sodipodi:arg1="-1.6902254"
         inkscape:randomized="0"
         sodipodi:cy="323.57617"
         sodipodi:cx="373.10147"
         inkscape:rounded="0.08"
         sodipodi:r2="13.43973"
         sodipodi:sides="3" />
      <path
         inkscape:connector-curvature="0"
         id="path14753"
         sodipodi:nodetypes="czzsz"
         style="fill:url(#radialGradient6982)"
         d="m 467.59429,183.49353 c 0,53.6967 -47.95254,133.86147 -97.27412,133.86147 -50.78478,0 -97.27411,-80.16477 -97.27411,-133.86147 0.003,-53.68946 43.57741,-103.119687 97.27411,-103.119687 53.6967,0 97.27412,49.430227 97.27412,103.119687 z" />
      <path
         inkscape:connector-curvature="0"
         id="path14790"
         sodipodi:nodetypes="ccsc"
         style="fill:none;stroke:#816647;stroke-width:2.17307568;stroke-linecap:round;stroke-linejoin:round"
         d="m 362.85928,317.72442 c 6.12083,-1.26763 10.43076,-2.55699 18.47114,-0.68814 9.8875,116.96942 73.70349,171.80337 101.29431,277.21203 2.1441,8.19974 2.37371,129.20336 4.10493,137.99707" />
      <path
         id="path14822"
         style="fill:url(#radialGradient6984)"
         sodipodi:type="star"
         d="m 577.26885,257.76541 c 2.53473,-0.30417 20.1387,23.19096 19.13475,25.53818 -1.00394,2.34722 -30.1533,5.84515 -31.68408,3.80209 -1.53078,-2.04305 10.0146,-29.0361 12.54933,-29.34027 z"
         sodipodi:r1="18.424053"
         inkscape:flatsided="true"
         sodipodi:arg2="-0.64302775"
         sodipodi:arg1="-1.6902254"
         inkscape:randomized="0"
         sodipodi:cy="276.05823"
         sodipodi:cx="579.46399"
         inkscape:rounded="0.08"
         sodipodi:r2="13.43973"
         sodipodi:sides="3" />
      <path
         inkscape:connector-curvature="0"
         id="path14824"
         sodipodi:nodetypes="czzsz"
         style="fill:url(#radialGradient6986)"
         d="m 673.9568,135.98285 c 0,53.68946 -47.95254,133.85422 -97.27411,133.85422 -50.78478,0 -97.26687,-80.16476 -97.26687,-133.85422 0,-53.6967 43.57741,-103.12693 97.26687,-103.12693 53.6967,7.25e-4 97.27411,49.43023 97.27411,103.12693 z" />
      <path
         inkscape:connector-curvature="0"
         id="path14826"
         sodipodi:nodetypes="ccsc"
         style="fill:none;stroke:#816647;stroke-width:2.17307568;stroke-linecap:round;stroke-linejoin:round"
         d="m 569.2218,270.2065 c 6.12807,-1.26039 10.43076,-2.55699 18.47114,-0.68814 -15.40711,159.77177 -79.43316,194.41059 -99.08501,324.90379 -0.35494,2.36141 3.56292,122.92099 5.83741,140.93579" />
      <path
         id="path14796"
         style="fill:url(#radialGradient6988)"
         sodipodi:type="star"
         sodipodi:sides="3"
         sodipodi:r1="18.424053"
         sodipodi:r2="13.43973"
         sodipodi:arg1="-1.6902254"
         sodipodi:arg2="-0.64302775"
         inkscape:randomized="0"
         sodipodi:cy="344.06104"
         sodipodi:cx="465.29782"
         inkscape:rounded="0.08"
         inkscape:flatsided="true"
         d="m 463.10268,325.76822 c 2.53473,-0.30417 20.1387,23.19095 19.13475,25.53818 -1.00394,2.34722 -30.1533,5.84514 -31.68408,3.80209 -1.53078,-2.04305 10.0146,-29.0361 12.54933,-29.34027 z" />
      <path
         inkscape:connector-curvature="0"
         id="path14798"
         sodipodi:nodetypes="czzsz"
         style="fill:url(#radialGradient6990)"
         d="m 559.7834,203.98563 c 0,53.68946 -47.94529,133.85423 -97.26687,133.85423 -50.78478,0 -97.27411,-80.16477 -97.27411,-133.85423 0,-53.6967 43.57741,-103.12693 97.27411,-103.12693 53.68946,0 97.26687,49.43023 97.26687,103.12693 z" />
      <path
         inkscape:connector-curvature="0"
         id="path14800"
         sodipodi:nodetypes="cccc"
         style="fill:none;stroke:#816647;stroke-width:2.17307568;stroke-linecap:round;stroke-linejoin:round"
         d="m 455.05564,338.20928 c 6.12083,-1.26763 10.43076,-2.55699 18.47114,-0.68814 9.14141,81.7004 26.52601,148.25447 12.42275,255.56095 -0.35493,3.40448 3.92068,123.8437 3.47158,135.62177" />
      <path
         inkscape:connector-curvature="0"
         id="path6930"
         style="fill:#816647;fill-rule:evenodd"
         d="m 485.93946,606.41132 c -0.78231,0.0942 -1.05032,0.30423 -3.36827,0.60846 -0.60122,-0.007 -1.10103,0.46359 -1.11551,1.06481 -0.007,0.60122 0.46359,1.10103 1.0648,1.10827 -0.32596,0.24628 -0.74609,0.68814 -0.70262,1.31833 0.029,0.36218 0.28974,0.71712 0.52153,0.89821 -0.007,0.0579 -0.0362,0.10141 -0.0435,0.15936 -0.0652,0.43461 -0.15211,1.0141 -0.24628,1.81089 -0.0797,0.60122 0.34769,1.15173 0.94891,1.22417 0.60122,0.0724 1.14449,-0.34769 1.22417,-0.94891 0.0579,-0.47084 0.0942,-0.70263 0.13038,-1.02135 0.4491,0.21007 0.97788,0.36218 1.62981,0.34045 1.1807,-0.0362 2.60044,-0.54327 4.41858,-1.8109 0.31872,-0.2173 0.49981,-0.58673 0.47084,-0.97064 -0.029,-0.39839 -0.31148,-0.7823 -0.565,-0.95615 -0.0507,-0.029 -0.0869,-0.0145 -0.13039,-0.0435 0.32596,-0.25353 0.70263,-0.70263 0.65193,-1.31109 -0.0362,-0.49981 -0.40564,-0.91269 -0.90545,-0.99237 -2.59321,-0.43462 -3.20167,-0.57949 -3.98397,-0.47808 z" />
    </g>
    <ellipse
       style="opacity:1;fill:#000000;fill-opacity:1;stroke:none;stroke-width:2.29999995;stroke-miterlimit:4;stroke-dasharray:none;stroke-dashoffset:0;stroke-opacity:1"
       id="path4273"
       cx="474.32034"
       cy="894.25287"
       rx="10.141663"
       ry="10.952996" />
    <path
       d="m 472.64239,895.09769 c -1.23608,-0.55267 -2.67078,-0.004 -3.22405,1.23163 l -12.18622,27.22309 -40.07564,-52.60783 -34.64347,77.39087 14.32858,23.32345 c -12.90138,4.87635 -23.92899,14.71087 -30.03579,28.3531 l -70.59886,157.7124 c -20.61925,46.0619 5.59142,96.7199 13.90969,100.4435 8.31966,3.7242 63.57044,-10.471 84.18863,-56.5305 l 70.59885,-157.7124 c 6.10652,-13.6415 6.09566,-28.4176 1.13878,-41.2886 l 26.94013,-4.84983 34.64347,-77.39088 -65.93235,5.15411 12.18621,-27.22309 c 0.55328,-1.23598 -5.9e-4,-2.67446 -1.23618,-3.22823 l -0.002,-7.9e-4 z m -18.86708,35.24001 4.29598,4.24698 -27.88015,65.74312 -4.58485,-3.60173 28.16902,-66.38837 z M 303.0838,1168.8595 c 22.95431,23.8608 49.76709,32.5091 80.90094,36.2147 l -1.63348,3.6491 c -34.02576,-3.4579 -57.12289,-11.6902 -80.90094,-36.2148 l 1.63348,-3.649 z"
       id="path4030"
       inkscape:connector-curvature="0" />
  </g>
</svg>
